<?xml version="1.0" encoding="utf-8" ?>
<svg xmlns="http://www.w3.org/2000/svg" xmlns:xlink="http://www.w3.org/1999/xlink" width="743" height="419">
	<path fill="#FEFEFE" d="M95.5831 97.527C88.5338 82.0703 89.2503 62.7725 94.8776 47.037C101.237 29.6445 114.193 15.4572 130.938 7.54717C147.682 -0.347421 167.983 -1.63151 185.445 4.69651C202.887 11.0172 217.84 24.1486 225.727 41.019C232.069 54.5852 234.63 70.5442 231.459 85.294C230.37 90.3645 228.561 95.188 226.797 100.051C228.022 105.142 229.692 110.21 231.128 115.252L239.938 146.183L269.046 248.525C269.318 242.84 269.069 237.045 269.053 231.35C268.987 207.592 269.212 184.948 278.15 162.439C289.546 133.738 310.716 112.878 338.92 100.754C374.763 85.3471 428.837 83.7877 465.307 98.3773C479.664 104.108 493.11 111.898 505.223 121.502C506.83 122.757 510.21 124.937 511.018 126.817C513.918 125.347 519.632 118.836 522.937 116.363C537.077 105.779 553.531 98.595 570.556 94.1066C586.104 90.0078 602.434 88.4266 618.482 88.4543C648.516 88.506 677.772 93.8638 703.984 109.155C716.08 116.354 726.851 125.574 735.83 136.414C737.893 138.888 740.578 141.855 741.36 145.049C741.76 146.683 741.483 148.206 740.587 149.614C738.862 152.324 682.122 191.118 679.763 191.595C678.365 191.878 676.956 191.593 675.734 190.884C672.681 189.113 670.373 185.955 667.8 183.566C663.888 179.933 659.657 176.66 655.159 173.786C641.494 165.212 624.444 163.251 608.803 166.915C600.99 168.745 593.493 172.771 589.213 179.799C586.665 183.982 585.597 188.85 585.075 193.674C584.229 201.482 584.474 209.422 584.469 217.266L584.458 250.59L584.461 282.813C584.464 292.087 583.635 302.191 585.867 311.234C587.49 317.807 590.972 323.664 596.911 327.202C604.581 331.773 615.015 331.857 623.47 329.767C627.971 328.655 639.966 323.802 642.291 319.927C642.954 316.285 642.817 291.48 642.449 287.108C642.398 286.491 642.204 285.998 641.885 285.47C635.686 285.45 615.768 286.458 610.989 284.458C609.635 283.892 608.191 282.924 607.655 281.496C607.078 279.957 606.943 278.16 606.867 276.528C606.47 267.983 606.933 259.202 606.903 250.627C606.872 241.616 606.312 232.253 606.928 223.277C607.023 221.891 607.198 220.51 607.8 219.241C608.504 217.755 609.683 216.613 611.238 216.058C612.494 215.61 613.908 215.458 615.234 215.418C621.743 215.219 628.347 215.524 634.868 215.522L680.858 215.512L714.472 215.507C721.114 215.482 727.873 215.196 734.506 215.505C736.186 215.583 737.944 215.775 739.464 216.543C741.044 217.34 742.057 218.553 742.596 220.23C743.433 222.687 743.545 236.375 742.502 238.71C742.52 243.654 742.87 266.966 741.873 270.243C742.087 270.855 742.213 271.41 742.231 272.059C742.453 279.751 742.256 287.509 742.257 295.207L742.261 340.112L742.262 375.263C742.263 380.862 742.527 386.574 742.281 392.158C742.254 392.772 742.077 393.412 741.824 393.969L742.018 394.952C741.667 396.161 741.214 397.075 740.222 397.891C738.986 398.908 737.616 399.308 736.047 399.472C732.265 399.868 728.256 399.565 724.45 399.557L702.284 399.532L682.874 399.536C678.647 399.564 674.215 399.881 670.015 399.383C661.126 398.329 664.663 392.062 660.287 386.762C660.246 386.713 660.203 386.666 660.16 386.618C660.127 386.665 660.096 386.713 660.061 386.759C658.801 388.418 655.831 389.89 654.042 390.972C640.843 398.946 626.204 404.248 610.959 406.576C579.684 411.663 547.681 403.887 522.228 385.016C518.798 382.456 515.47 379.483 512.443 376.462C510.606 374.63 508.857 372.294 506.749 370.797C506.687 370.752 506.622 370.71 506.559 370.667C506.413 371.001 506.245 371.236 505.996 371.504C502.809 374.945 498.255 377.765 494.369 380.394C472.249 395.357 445.065 405.395 418.371 407.321C377.882 410.242 336.276 402.05 304.943 374.821C306.6 379.444 311.21 391.884 309.084 396.164C308.455 397.43 306.774 398.748 305.416 399.149C301.18 400.401 275.056 399.517 268.532 399.517L231.595 399.537C224.991 399.544 218.29 399.785 211.696 399.491C210.054 399.417 208.337 399.332 206.896 398.447C205.371 397.51 204.727 395.905 204.095 394.305C201.975 388.931 200.857 382.801 199.427 377.199C196.909 367.571 194.494 357.916 192.181 348.237C171.403 348.311 150.47 348.745 129.706 348.193C128.935 354.423 127.192 360.711 125.82 366.833C124.036 374.791 122.413 382.832 120.438 390.744C119.933 392.767 118.679 397.554 116.697 398.529C115.127 399.302 112.571 399.495 110.83 399.571C106.378 399.766 101.861 399.547 97.4006 399.543L69.6945 399.534L38.6328 399.533C33.7409 399.534 28.7859 399.737 23.9006 399.556C22.58 399.507 21.2523 399.348 20.0065 398.886C18.4914 398.325 17.3433 397.336 16.6714 395.853C15.8935 394.136 15.9839 392.316 16.3519 390.511C17.4173 385.285 18.9751 380.085 20.3438 374.928L27.4473 348.223L48.435 269.008L64.0634 209.966C66.7665 199.756 69.0052 188.609 72.6645 178.757C66.1824 185.956 59.3851 193.238 50.9877 198.185C48.2823 208.37 47.4574 221.636 43.7559 231.15C42.9898 233.119 42.0094 234.882 40.6954 236.537C38.2115 239.665 34.7483 241.688 32.1078 244.647C28.954 248.181 25.2216 257.119 21.0586 258.752C20.1921 259.092 19.392 259.09 18.5684 258.639C17.6584 258.14 16.7964 257.11 16.5826 256.081C15.9454 253.013 20.1672 248.269 21.9051 245.861C17.866 244.593 13.82 243.68 10.2366 241.319C10.2858 244.465 11.0555 251.277 8.8838 253.823C8.2881 254.521 7.57086 254.904 6.64208 254.873C5.79813 254.845 4.78969 254.407 4.25568 253.744C3.36221 252.635 3.10213 251.017 2.953 249.645C2.46023 245.111 3.13772 240.465 2.90999 235.912C2.61681 230.05 0.743483 225.115 1.51258 219.063C2.60651 210.456 4.85032 201.73 6.58941 193.225C8.24222 185.142 10.6082 168.911 14.0987 161.883C15.0368 159.994 16.7325 158.246 18.1673 156.7C21.3823 153.238 24.9122 150.004 28.257 146.661L51.7856 123.242C58.1127 116.946 66.8418 107.048 73.6339 101.854C79.9484 97.0257 88.0185 96.5134 95.5831 97.527ZM145.7 270.631C150.645 270.572 155.59 270.556 160.536 270.584L174.864 270.58C172.883 263.153 171.654 255.427 170.186 247.879L163.192 211.829C162.598 208.71 161.492 198.97 160.3 196.809C156.239 213.95 153.355 232.894 149.945 250.37C148.639 257.063 147.584 264.084 145.7 270.631ZM381.522 320.28C388.247 327.905 397.33 330.311 407.131 330.926C422.015 331.86 440.821 326.869 453.466 319.089C457.675 316.5 464.17 311.122 468.869 310.196C471.804 309.618 474.498 311.944 476.291 313.959C477.878 315.742 480.957 319.562 480.983 322.026C481.252 321.468 481.419 320.903 481.391 320.279C481.276 317.782 480.66 315.136 480.285 312.657C479.652 308.469 479.245 304.516 479.139 300.279C478.648 280.471 478.977 260.587 478.983 240.772C478.988 225.014 478.266 208.857 480.092 193.188C481.175 183.438 483.527 173.872 487.087 164.731C488.032 162.247 489.289 159.902 490.208 157.434L489.652 157.259C487.495 160.824 471.23 178.015 467.499 181.244C466.429 182.17 464.887 183.377 463.487 183.72C461.114 184.302 457.957 182.152 456.132 180.871C451.161 177.382 446.511 173.906 440.974 171.279C429.155 165.673 412.785 163.9 399.99 166.116C392.466 167.419 385.178 170.544 380.632 176.955C377.523 181.34 375.913 186.709 375.196 191.995C374.178 199.504 374.445 207.255 374.445 214.82L374.475 245.676L374.447 278.044C374.443 286.983 374.046 296.073 375.627 304.911C376.626 310.495 378.453 315.508 381.522 320.28Z"/>
	<path fill="#0E341B" d="M103.48 112.431C104.9 113.737 106.079 115.622 107.358 117.096C110.659 120.9 114.145 124.44 118.118 127.547C133.038 139.054 151.915 144.173 170.605 141.777C189.185 139.419 206.08 129.817 217.614 115.063C222.568 134.395 228.448 153.556 233.917 172.756L266.969 288.714C270.387 300.818 270.797 313.296 274.362 325.375C275.684 329.838 277.287 334.214 279.162 338.475C280.899 342.332 282.919 346.11 284.332 350.1C288.445 361.723 291.341 374.441 294.786 386.361C285.867 386.598 276.892 386.402 267.968 386.405L215.394 386.391C214.523 382.093 213.266 377.809 212.18 373.556C210.084 365.962 205.356 342.883 202.201 337.719C201.468 336.518 201.078 336.171 199.69 335.849C193.926 334.511 187.412 335.083 181.516 335.079L157.465 335.07L136.434 335.077C132.47 335.08 128.412 334.892 124.465 335.23C123.214 335.338 122.115 335.677 121.058 336.365C119.813 337.175 119.218 338.153 118.694 339.504C116.686 344.674 115.831 350.753 114.618 356.183L107.796 386.413L31.0215 386.373L81.5654 195.525C88.8991 167.851 96.5835 140.215 103.48 112.431ZM145.7 270.631C150.645 270.572 155.59 270.556 160.536 270.584L174.864 270.58C172.883 263.153 171.654 255.427 170.186 247.879L163.192 211.829C162.598 208.71 161.492 198.97 160.3 196.809C156.239 213.95 153.355 232.894 149.945 250.37C148.639 257.063 147.584 264.084 145.7 270.631Z"/>
	<path fill="#FEFEFE" d="M158.174 155.3L158.33 155.288C160.568 155.132 162.684 155.067 164.466 156.67C165.623 157.713 166.17 158.871 166.569 160.353C168.548 167.701 169.613 175.52 171.065 183.002L179.696 227.393L185.974 259.713C187.141 265.729 188.863 272.109 189.142 278.223C188.71 279.316 188.187 280.568 187.343 281.408C183.546 285.187 167.748 283.69 162.35 283.663C156.598 283.689 141.846 284.467 137.09 283.327C135.177 282.868 133.338 282.105 132.291 280.339C131.455 278.93 131.368 277.434 131.559 275.846C132.287 269.804 133.844 263.648 135.007 257.667L141.725 222.958L149.398 183.33C150.773 176.159 151.853 168.756 153.616 161.678C154.444 158.352 155.232 157.077 158.174 155.3ZM145.7 270.631C150.645 270.572 155.59 270.556 160.536 270.584L174.864 270.58C172.883 263.153 171.654 255.427 170.186 247.879L163.192 211.829C162.598 208.71 161.492 198.97 160.3 196.809C156.239 213.95 153.355 232.894 149.945 250.37C148.639 257.063 147.584 264.084 145.7 270.631Z"/>
	<path fill="#87998C" d="M607.414 101.757C634.874 100.017 664.602 103.916 689.439 116.117C701.165 121.895 711.788 129.681 720.83 139.122C722.299 140.656 724.65 142.845 725.341 144.859C724.668 145.927 682.77 174.803 679.15 176.716C678.986 176.266 678.844 175.96 678.516 175.603C676.405 173.309 673.764 171.347 671.336 169.389C659.01 159.451 645.354 153.373 629.432 152.439C614.095 151.54 596.753 154.033 584.892 164.612C575.611 172.89 572.239 184.568 571.538 196.638C571.11 204.024 571.35 211.501 571.351 218.902L571.373 256.822L571.346 285.219C571.337 293.978 570.964 302.899 572.583 311.545C573.984 319.029 577.078 326.211 582.196 331.917C589.25 339.781 599.199 343.386 609.561 343.909C625.278 344.702 640.663 339.564 652.272 328.808C654.85 326.419 655.615 324.24 655.702 320.77C655.925 311.793 655.598 302.766 655.597 293.784C655.596 288.889 656.255 283.485 655.571 278.649C655.336 276.984 654.728 275.285 653.524 274.072C652.723 273.266 651.88 272.849 650.781 272.615C645.143 271.412 626.504 272.21 619.554 272.234C619.712 271.978 619.843 271.762 619.915 271.466C620.466 269.201 620.332 234.196 619.966 230.145C619.912 229.543 619.713 229.061 619.392 228.55L697.923 228.544L729.099 228.541C729.239 228.779 729.362 228.996 729.454 229.258C730.368 231.861 729.331 272.075 729.324 278.82L729.325 348.936C729.327 360.567 729.637 372.271 729.305 383.89C729.278 384.826 729.165 385.544 728.725 386.392L673.848 386.389C673.911 386.164 673.978 385.905 673.982 385.671C674.033 382.601 669.928 373.299 667.456 371.185C667.079 370.86 666.671 370.573 666.238 370.327C665.568 369.948 664.848 369.703 664.076 369.641C660.09 369.321 649.377 378.621 645.384 380.887C631.799 388.679 616.637 393.322 601.018 394.473C572.706 396.65 546.31 388.573 524.708 370.077C505.929 353.997 494.467 329.85 492.61 305.346C491.426 289.725 492.209 273.594 492.207 257.918L492.197 225.568C492.196 211.071 491.945 196.911 495.298 182.68C498.843 167.169 506.086 152.745 516.411 140.638C539.756 113.616 573.099 104.318 607.414 101.757Z"/>
	<path fill="#56705F" d="M394.578 101.727C408.599 100.825 423.461 101.638 437.29 104.162C455.857 107.55 472.209 114.733 487.893 125.073C490.424 126.741 494.313 128.797 496.019 131.271C495.473 132.783 463.119 167.392 461.17 168.531C460.95 168.046 460.676 167.835 460.268 167.527C443.685 154.98 419.641 150.081 399.271 152.972C387.926 154.582 377.247 159.59 370.26 168.914C365.971 174.637 363.489 181.357 362.348 188.376C361.025 196.508 361.337 204.865 361.34 213.079L361.357 242.446L361.338 276.796C361.336 286.102 361.036 295.476 362.374 304.712C364.092 316.575 368.497 327.739 378.376 335.084C391.526 344.861 409.922 345.066 425.438 342.774C438.162 340.895 451.557 335.551 462.573 328.991C464.211 328.016 466.652 326.81 467.796 325.275C469.623 326.501 483.998 346.196 484.461 347.97C484.579 348.047 484.695 348.127 484.806 348.212C486.521 349.526 495.088 361.251 495.314 362.944C495.167 363.309 495.012 363.562 494.747 363.855C492.256 366.612 488.156 368.867 485.034 370.908C464.197 384.383 440.321 392.435 415.579 394.33C380.466 396.702 342.102 389.847 314.924 366.04C294.713 348.334 284.248 323.244 282.55 296.718C281.514 280.544 282.211 263.993 282.202 247.772C282.178 208.125 279.224 170.986 307.613 138.749C329.862 113.485 361.99 103.78 394.578 101.727Z"/>
	<path fill="#0E341B" d="M157.175 12.8454C157.73 12.7751 158.271 12.7559 158.83 12.7429C175.187 12.3642 190.577 17.7487 202.473 29.1766C213.758 39.9496 220.262 54.7921 220.53 70.3915C220.824 85.9722 214.917 101.032 204.108 112.258C192.645 124.142 177.738 130.047 161.352 130.344C157.275 130.154 153.375 129.934 149.366 129.072C132.381 125.419 119.852 115.452 110.558 101.048C111.012 100.847 111.458 100.627 111.894 100.388C116.953 97.6377 119.564 92.3715 121.095 87.0378C124.252 76.044 124.12 60.3805 118.377 50.2058C116.374 46.6584 113.927 44.256 109.987 43.1398C111.759 40.0553 113.703 37.1245 115.97 34.3778C126.477 21.6509 140.838 14.4333 157.175 12.8454Z"/>
	<path fill="#FEFEFE" d="M159.919 50.1474C161.032 50.1003 162.181 50.0285 163.255 50.3745C165.998 51.2587 168.026 53.6397 169.278 56.138C172.763 63.0903 172.852 73.6546 170.425 80.9573C169.09 84.9734 167.055 87.9415 163.223 89.8253C162.181 89.9068 161.151 89.9922 160.132 89.7073C157.48 88.9658 155.517 86.8648 154.234 84.5122C150.507 77.6813 150.263 67.2644 152.541 59.9363C153.876 55.642 155.87 52.2675 159.919 50.1474Z"/>
	<path fill="#FEFEFE" d="M196.925 50.1241C197.865 50.0697 198.742 50.0672 199.67 50.2687C201.856 50.7432 203.743 52.7731 204.835 54.6206C208.842 61.3998 208.791 73.0501 206.748 80.4856C205.633 84.5416 203.874 87.7237 200.162 89.8098C199.325 89.9368 198.401 90.0003 197.569 89.8054C195.547 89.332 193.84 87.7622 192.738 86.0596C188.634 79.7202 188.508 68.6459 190.037 61.476C191.024 56.8442 192.85 52.7459 196.925 50.1241Z"/>
	<path fill="#0E341B" d="M86.9316 109.609L90.8511 109.538C88.9505 116.723 80.4938 151.706 78.2061 155.162C75.5565 159.164 71.3538 162.577 67.9388 165.96L54.675 179.293C55.3923 176.155 55.6186 173.254 55.4589 170.053C55.0994 167.746 54.5306 165.547 53.5684 163.412C51.0458 157.817 46.7029 154.008 40.9874 151.898L66.6495 126.141C71.2609 121.507 75.89 116.095 81.1606 112.22C83.0219 110.851 84.7038 110.194 86.9316 109.609Z"/>
	<path fill="#0E341B" d="M31.2222 163.324C33.3263 163.173 35.253 163.101 37.2535 163.876C39.7336 164.836 41.2946 166.542 42.3236 168.966C43.1074 170.813 42.8965 172.803 42.6747 174.748C41.5875 184.279 38.8864 194.09 36.9332 203.509C35.5575 210.144 33.9491 221.635 31.5565 227.418C30.4168 230.172 27.9159 231.551 25.2834 232.612C23.3024 232.827 21.4521 232.773 19.5742 232.04C17.2373 231.128 15.5012 229.484 14.493 227.188C13.8057 225.623 13.6792 224.425 13.8321 222.712C14.6421 213.642 18.0721 200.611 19.9904 191.355C21.2868 185.099 22.8134 174.007 25.0709 168.607C26.2526 165.78 28.5079 164.441 31.2222 163.324Z"/>
	<path fill="#0E341B" d="M108.81 46.1293C109.69 46.2362 110.573 46.4306 111.357 46.8601C114.833 48.7648 116.76 53.2026 117.88 56.8028C121.123 67.2311 121.111 82.3057 115.844 92.1145C114.31 94.9719 112.548 96.9675 109.41 97.9355C108.47 97.8042 107.582 97.5747 106.748 97.1104C103.025 95.0379 101.08 89.9209 99.9811 86.0157C97.0704 75.6724 97.1763 60.935 102.652 51.3956C104.15 48.7867 105.858 46.9105 108.81 46.1293Z"/>
	<path fill="#FEFEFE" fill-opacity="0.40784314" d="M742.533 254.336C743.378 256.293 743.429 268.286 742.711 270.134C742.615 270.379 742.608 270.384 742.505 270.59C743.213 276.144 742.641 282.406 742.629 288.025L742.605 323.483L742.625 371.223C742.631 378.32 743.219 385.897 742.676 392.94L741.824 393.969C742.077 393.412 742.254 392.772 742.281 392.158C742.527 386.574 742.263 380.862 742.262 375.263L742.261 340.112L742.257 295.207C742.256 287.509 742.453 279.751 742.231 272.059C742.213 271.41 742.087 270.855 741.873 270.243C741.905 270.201 741.935 270.158 741.968 270.116C743.212 268.539 742.676 256.936 742.533 254.336Z"/>
	<path fill="#FEFEFE" fill-opacity="0.094117649" d="M742.676 392.94C743.219 385.897 742.631 378.32 742.625 371.223L742.605 323.483L742.629 288.025C742.641 282.406 743.213 276.144 742.505 270.59C742.853 271.389 742.956 272.044 742.98 272.903C743.209 281.41 743.015 289.971 743.016 298.481L743.013 347.529L743.005 377.488C743.003 382.57 743.327 387.892 742.919 392.94L742.676 392.94Z"/>
	<path fill="#FEFEFE" fill-opacity="0.7647059" d="M742.502 238.71C743.437 240.781 743.391 252.215 742.617 254.146C742.591 254.21 742.561 254.272 742.533 254.336C742.676 256.936 743.212 268.539 741.968 270.116C741.935 270.158 741.905 270.201 741.873 270.243C742.87 266.966 742.52 243.654 742.502 238.71Z"/>
</svg>
